<svg width="328" height="34" viewBox="0 0 328 34" fill="none" xmlns="http://www.w3.org/2000/svg">
<path d="M11.566 8.436C13.0167 8.436 14.3087 8.73067 15.442 9.32C16.598 9.88667 17.5047 10.7707 18.162 11.972C18.8193 13.1507 19.148 14.6693 19.148 16.528V27H13.844V17.344C13.844 15.8707 13.5153 14.7827 12.858 14.08C12.2233 13.3773 11.3167 13.026 10.138 13.026C9.29933 13.026 8.54 13.2073 7.86 13.57C7.20267 13.91 6.68133 14.4427 6.296 15.168C5.93333 15.8933 5.752 16.8227 5.752 17.956V27H0.448V1.772H5.752V13.774L4.562 12.244C5.21933 11.02 6.16 10.0793 7.384 9.422C8.608 8.76467 10.002 8.436 11.566 8.436ZM32.7926 27.272C30.8433 27.272 29.1093 26.864 27.5906 26.048C26.0946 25.232 24.9046 24.1213 24.0206 22.716C23.1593 21.288 22.7286 19.6673 22.7286 17.854C22.7286 16.018 23.1593 14.3973 24.0206 12.992C24.9046 11.564 26.0946 10.4533 27.5906 9.66C29.1093 8.844 30.8433 8.436 32.7926 8.436C34.7193 8.436 36.442 8.844 37.9606 9.66C39.4793 10.4533 40.6693 11.5527 41.5306 12.958C42.392 14.3633 42.8226 15.9953 42.8226 17.854C42.8226 19.6673 42.392 21.288 41.5306 22.716C40.6693 24.1213 39.4793 25.232 37.9606 26.048C36.442 26.864 34.7193 27.272 32.7926 27.272ZM32.7926 22.92C33.6766 22.92 34.47 22.716 35.1726 22.308C35.8753 21.9 36.4306 21.322 36.8386 20.574C37.2466 19.8033 37.4506 18.8967 37.4506 17.854C37.4506 16.7887 37.2466 15.882 36.8386 15.134C36.4306 14.386 35.8753 13.808 35.1726 13.4C34.47 12.992 33.6766 12.788 32.7926 12.788C31.9086 12.788 31.1153 12.992 30.4126 13.4C29.71 13.808 29.1433 14.386 28.7126 15.134C28.3046 15.882 28.1006 16.7887 28.1006 17.854C28.1006 18.8967 28.3046 19.8033 28.7126 20.574C29.1433 21.322 29.71 21.9 30.4126 22.308C31.1153 22.716 31.9086 22.92 32.7926 22.92ZM46.3679 27V8.708H51.4339V13.876L50.7199 12.38C51.2639 11.088 52.1366 10.1133 53.3379 9.456C54.5393 8.776 56.0013 8.436 57.7239 8.436V13.332C57.4973 13.3093 57.2933 13.298 57.1119 13.298C56.9306 13.2753 56.7379 13.264 56.5339 13.264C55.0833 13.264 53.9046 13.6833 52.9979 14.522C52.1139 15.338 51.6719 16.6187 51.6719 18.364V27H46.3679ZM69.8229 27.272C67.7375 27.272 65.9015 26.864 64.3149 26.048C62.7509 25.232 61.5382 24.1213 60.6769 22.716C59.8155 21.288 59.3849 19.6673 59.3849 17.854C59.3849 16.018 59.8042 14.3973 60.6429 12.992C61.5042 11.564 62.6715 10.4533 64.1449 9.66C65.6182 8.844 67.2842 8.436 69.1429 8.436C70.9335 8.436 72.5429 8.82133 73.9709 9.592C75.4215 10.34 76.5662 11.428 77.4049 12.856C78.2435 14.2613 78.6629 15.95 78.6629 17.922C78.6629 18.126 78.6515 18.364 78.6289 18.636C78.6062 18.8853 78.5835 19.1233 78.5609 19.35H63.7029V16.256H75.7729L73.7329 17.174C73.7329 16.222 73.5402 15.3947 73.1549 14.692C72.7695 13.9893 72.2369 13.4453 71.5569 13.06C70.8769 12.652 70.0835 12.448 69.1769 12.448C68.2702 12.448 67.4655 12.652 66.7629 13.06C66.0829 13.4453 65.5502 14.0007 65.1649 14.726C64.7795 15.4287 64.5869 16.2673 64.5869 17.242V18.058C64.5869 19.0553 64.8022 19.9393 65.2329 20.71C65.6862 21.458 66.3095 22.036 67.1029 22.444C67.9189 22.8293 68.8709 23.022 69.9589 23.022C70.9335 23.022 71.7835 22.8747 72.5089 22.58C73.2569 22.2853 73.9369 21.8433 74.5489 21.254L77.3709 24.314C76.5322 25.266 75.4782 26.0027 74.2089 26.524C72.9395 27.0227 71.4775 27.272 69.8229 27.272ZM91.0341 27.272C89.0621 27.272 87.3054 26.8753 85.7641 26.082C84.2228 25.266 83.0101 24.144 82.1261 22.716C81.2648 21.288 80.8341 19.6673 80.8341 17.854C80.8341 16.018 81.2648 14.3973 82.1261 12.992C83.0101 11.564 84.2228 10.4533 85.7641 9.66C87.3054 8.844 89.0621 8.436 91.0341 8.436C92.9608 8.436 94.6381 8.844 96.0661 9.66C97.4941 10.4533 98.5481 11.598 99.2281 13.094L95.1141 15.304C94.6381 14.4427 94.0374 13.808 93.3121 13.4C92.6094 12.992 91.8388 12.788 91.0001 12.788C90.0934 12.788 89.2774 12.992 88.5521 13.4C87.8268 13.808 87.2488 14.386 86.8181 15.134C86.4101 15.882 86.2061 16.7887 86.2061 17.854C86.2061 18.9193 86.4101 19.826 86.8181 20.574C87.2488 21.322 87.8268 21.9 88.5521 22.308C89.2774 22.716 90.0934 22.92 91.0001 22.92C91.8388 22.92 92.6094 22.7273 93.3121 22.342C94.0374 21.934 94.6381 21.288 95.1141 20.404L99.2281 22.648C98.5481 24.1213 97.4941 25.266 96.0661 26.082C94.6381 26.8753 92.9608 27.272 91.0341 27.272ZM113.502 27V23.43L113.162 22.648V16.256C113.162 15.1227 112.811 14.2387 112.108 13.604C111.428 12.9693 110.374 12.652 108.946 12.652C107.971 12.652 107.008 12.8107 106.056 13.128C105.127 13.4227 104.333 13.8307 103.676 14.352L101.772 10.646C102.769 9.94333 103.971 9.39933 105.376 9.014C106.781 8.62867 108.209 8.436 109.66 8.436C112.448 8.436 114.613 9.09333 116.154 10.408C117.695 11.7227 118.466 13.774 118.466 16.562V27H113.502ZM107.926 27.272C106.498 27.272 105.274 27.034 104.254 26.558C103.234 26.0593 102.452 25.3907 101.908 24.552C101.364 23.7133 101.092 22.7727 101.092 21.73C101.092 20.642 101.353 19.69 101.874 18.874C102.418 18.058 103.268 17.4233 104.424 16.97C105.58 16.494 107.087 16.256 108.946 16.256H113.808V19.35H109.524C108.277 19.35 107.416 19.554 106.94 19.962C106.487 20.37 106.26 20.88 106.26 21.492C106.26 22.172 106.521 22.716 107.042 23.124C107.586 23.5093 108.323 23.702 109.252 23.702C110.136 23.702 110.929 23.498 111.632 23.09C112.335 22.6593 112.845 22.036 113.162 21.22L113.978 23.668C113.593 24.8467 112.89 25.742 111.87 26.354C110.85 26.966 109.535 27.272 107.926 27.272ZM122.586 19.554V15.304H132.208V19.554H122.586ZM147.5 8.436C148.95 8.436 150.242 8.73067 151.376 9.32C152.532 9.88667 153.438 10.7707 154.096 11.972C154.753 13.1507 155.082 14.6693 155.082 16.528V27H149.778V17.344C149.778 15.8707 149.449 14.7827 148.792 14.08C148.157 13.3773 147.25 13.026 146.072 13.026C145.233 13.026 144.474 13.2073 143.794 13.57C143.136 13.91 142.615 14.4427 142.23 15.168C141.867 15.8933 141.686 16.8227 141.686 17.956V27H136.382V8.708H141.448V13.774L140.496 12.244C141.153 11.02 142.094 10.0793 143.318 9.422C144.542 8.76467 145.936 8.436 147.5 8.436ZM171.109 27V23.43L170.769 22.648V16.256C170.769 15.1227 170.418 14.2387 169.715 13.604C169.035 12.9693 167.981 12.652 166.553 12.652C165.579 12.652 164.615 12.8107 163.663 13.128C162.734 13.4227 161.941 13.8307 161.283 14.352L159.379 10.646C160.377 9.94333 161.578 9.39933 162.983 9.014C164.389 8.62867 165.817 8.436 167.267 8.436C170.055 8.436 172.22 9.09333 173.761 10.408C175.303 11.7227 176.073 13.774 176.073 16.562V27H171.109ZM165.533 27.272C164.105 27.272 162.881 27.034 161.861 26.558C160.841 26.0593 160.059 25.3907 159.515 24.552C158.971 23.7133 158.699 22.7727 158.699 21.73C158.699 20.642 158.96 19.69 159.481 18.874C160.025 18.058 160.875 17.4233 162.031 16.97C163.187 16.494 164.695 16.256 166.553 16.256H171.415V19.35H167.131C165.885 19.35 165.023 19.554 164.547 19.962C164.094 20.37 163.867 20.88 163.867 21.492C163.867 22.172 164.128 22.716 164.649 23.124C165.193 23.5093 165.93 23.702 166.859 23.702C167.743 23.702 168.537 23.498 169.239 23.09C169.942 22.6593 170.452 22.036 170.769 21.22L171.585 23.668C171.2 24.8467 170.497 25.742 169.477 26.354C168.457 26.966 167.143 27.272 165.533 27.272ZM191.686 27.272C190.144 27.272 188.796 26.932 187.64 26.252C186.484 25.572 185.577 24.5407 184.92 23.158C184.285 21.7527 183.968 19.9847 183.968 17.854C183.968 15.7007 184.274 13.9327 184.886 12.55C185.498 11.1673 186.382 10.136 187.538 9.456C188.694 8.776 190.076 8.436 191.686 8.436C193.408 8.436 194.95 8.83267 196.31 9.626C197.692 10.3967 198.78 11.4847 199.574 12.89C200.39 14.2953 200.798 15.95 200.798 17.854C200.798 19.7807 200.39 21.4467 199.574 22.852C198.78 24.2573 197.692 25.3453 196.31 26.116C194.95 26.8867 193.408 27.272 191.686 27.272ZM180.874 33.596V8.708H185.94V12.448L185.838 17.888L186.178 23.294V33.596H180.874ZM190.768 22.92C191.652 22.92 192.434 22.716 193.114 22.308C193.816 21.9 194.372 21.322 194.78 20.574C195.21 19.8033 195.426 18.8967 195.426 17.854C195.426 16.7887 195.21 15.882 194.78 15.134C194.372 14.386 193.816 13.808 193.114 13.4C192.434 12.992 191.652 12.788 190.768 12.788C189.884 12.788 189.09 12.992 188.388 13.4C187.685 13.808 187.13 14.386 186.722 15.134C186.314 15.882 186.11 16.7887 186.11 17.854C186.11 18.8967 186.314 19.8033 186.722 20.574C187.13 21.322 187.685 21.9 188.388 22.308C189.09 22.716 189.884 22.92 190.768 22.92ZM208.734 23.26L208.87 16.8L217.404 8.708H223.728L215.534 17.038L212.78 19.282L208.734 23.26ZM204.348 27V1.772H209.652V27H204.348ZM217.982 27L211.794 19.316L215.126 15.202L224.408 27H217.982ZM226.794 27V8.708H232.098V27H226.794ZM229.446 6.158C228.471 6.158 227.678 5.87467 227.066 5.308C226.454 4.74133 226.148 4.03867 226.148 3.2C226.148 2.36133 226.454 1.65867 227.066 1.092C227.678 0.525332 228.471 0.241998 229.446 0.241998C230.42 0.241998 231.214 0.513999 231.826 1.058C232.438 1.57933 232.744 2.25933 232.744 3.098C232.744 3.982 232.438 4.71867 231.826 5.308C231.236 5.87467 230.443 6.158 229.446 6.158ZM248.138 8.436C249.589 8.436 250.881 8.73067 252.014 9.32C253.17 9.88667 254.077 10.7707 254.734 11.972C255.392 13.1507 255.72 14.6693 255.72 16.528V27H250.416V17.344C250.416 15.8707 250.088 14.7827 249.43 14.08C248.796 13.3773 247.889 13.026 246.71 13.026C245.872 13.026 245.112 13.2073 244.432 13.57C243.775 13.91 243.254 14.4427 242.868 15.168C242.506 15.8933 242.324 16.8227 242.324 17.956V27H237.02V8.708H242.086V13.774L241.134 12.244C241.792 11.02 242.732 10.0793 243.956 9.422C245.18 8.76467 246.574 8.436 248.138 8.436ZM266.682 27.272C265.118 27.272 263.611 27.0907 262.16 26.728C260.732 26.3427 259.599 25.8667 258.76 25.3L260.528 21.492C261.367 22.0133 262.353 22.444 263.486 22.784C264.642 23.1013 265.775 23.26 266.886 23.26C268.11 23.26 268.971 23.1127 269.47 22.818C269.991 22.5233 270.252 22.1153 270.252 21.594C270.252 21.1633 270.048 20.846 269.64 20.642C269.255 20.4153 268.733 20.2453 268.076 20.132C267.419 20.0187 266.693 19.9053 265.9 19.792C265.129 19.6787 264.347 19.5313 263.554 19.35C262.761 19.146 262.035 18.8513 261.378 18.466C260.721 18.0807 260.188 17.5593 259.78 16.902C259.395 16.2447 259.202 15.3947 259.202 14.352C259.202 13.196 259.531 12.176 260.188 11.292C260.868 10.408 261.843 9.71667 263.112 9.218C264.381 8.69667 265.9 8.436 267.668 8.436C268.915 8.436 270.184 8.572 271.476 8.844C272.768 9.116 273.845 9.51267 274.706 10.034L272.938 13.808C272.054 13.2867 271.159 12.9353 270.252 12.754C269.368 12.55 268.507 12.448 267.668 12.448C266.489 12.448 265.628 12.6067 265.084 12.924C264.54 13.2413 264.268 13.6493 264.268 14.148C264.268 14.6013 264.461 14.9413 264.846 15.168C265.254 15.3947 265.787 15.576 266.444 15.712C267.101 15.848 267.815 15.9727 268.586 16.086C269.379 16.1767 270.173 16.324 270.966 16.528C271.759 16.732 272.473 17.0267 273.108 17.412C273.765 17.7747 274.298 18.2847 274.706 18.942C275.114 19.5767 275.318 20.4153 275.318 21.458C275.318 22.5913 274.978 23.6 274.298 24.484C273.618 25.3453 272.632 26.0253 271.34 26.524C270.071 27.0227 268.518 27.272 266.682 27.272ZM280.597 27.272C279.69 27.272 278.908 26.966 278.251 26.354C277.616 25.7193 277.299 24.9147 277.299 23.94C277.299 22.9653 277.616 22.1833 278.251 21.594C278.908 20.982 279.69 20.676 280.597 20.676C281.526 20.676 282.308 20.982 282.943 21.594C283.577 22.1833 283.895 22.9653 283.895 23.94C283.895 24.9147 283.577 25.7193 282.943 26.354C282.308 26.966 281.526 27.272 280.597 27.272ZM296.368 27.272C294.282 27.272 292.446 26.864 290.86 26.048C289.296 25.232 288.083 24.1213 287.222 22.716C286.36 21.288 285.93 19.6673 285.93 17.854C285.93 16.018 286.349 14.3973 287.188 12.992C288.049 11.564 289.216 10.4533 290.69 9.66C292.163 8.844 293.829 8.436 295.688 8.436C297.478 8.436 299.088 8.82133 300.516 9.592C301.966 10.34 303.111 11.428 303.95 12.856C304.788 14.2613 305.208 15.95 305.208 17.922C305.208 18.126 305.196 18.364 305.174 18.636C305.151 18.8853 305.128 19.1233 305.106 19.35H290.248V16.256H302.318L300.278 17.174C300.278 16.222 300.085 15.3947 299.7 14.692C299.314 13.9893 298.782 13.4453 298.102 13.06C297.422 12.652 296.628 12.448 295.722 12.448C294.815 12.448 294.01 12.652 293.308 13.06C292.628 13.4453 292.095 14.0007 291.71 14.726C291.324 15.4287 291.132 16.2673 291.132 17.242V18.058C291.132 19.0553 291.347 19.9393 291.778 20.71C292.231 21.458 292.854 22.036 293.648 22.444C294.464 22.8293 295.416 23.022 296.504 23.022C297.478 23.022 298.328 22.8747 299.054 22.58C299.802 22.2853 300.482 21.8433 301.094 21.254L303.916 24.314C303.077 25.266 302.023 26.0027 300.754 26.524C299.484 27.0227 298.022 27.272 296.368 27.272ZM316.457 27.272C314.938 27.272 313.578 26.9773 312.377 26.388C311.198 25.7987 310.28 24.9033 309.623 23.702C308.966 22.478 308.637 20.9253 308.637 19.044V8.708H313.941V18.262C313.941 19.7807 314.258 20.9027 314.893 21.628C315.55 22.3307 316.468 22.682 317.647 22.682C318.463 22.682 319.188 22.512 319.823 22.172C320.458 21.8093 320.956 21.2653 321.319 20.54C321.682 19.792 321.863 18.8627 321.863 17.752V8.708H327.167V27H322.135V21.968L323.053 23.43C322.441 24.6993 321.534 25.6627 320.333 26.32C319.154 26.9547 317.862 27.272 316.457 27.272Z" fill="#333333"/>
</svg>
